<svg width="116" height="48" viewBox="0 0 116 48" fill="none" xmlns="http://www.w3.org/2000/svg">
<path d="M48.1655 14.4255L45.2885 15.4037C45.6025 16.4058 45.9894 17.8367 45.9894 18.6712C45.9894 19.5776 45.4091 20.1262 44.2971 20.1262C43.1609 20.1262 42.4843 19.8635 42.4843 18.3846V15.8325H39.4381V18.3846C39.4381 19.8635 38.7615 20.1262 37.5525 20.1262C36.3677 20.1262 35.6911 19.8635 35.6911 18.3846V15.8325H32.6207V18.3607C32.6207 19.8635 31.7985 20.1254 30.0342 20.1254C28.2213 20.1254 27.5925 19.7677 27.5925 17.8113V6.86426H24.3772V17.9797C24.3772 19.7924 23.7484 20.1262 21.9363 20.1262H21.9356C20.5089 20.1262 19.6639 19.841 19.6639 18.0515V9.84521H16.6412V11.5403C10.9115 12.7072 8.85742 15.0691 8.85742 18.0276C8.85742 20.8409 10.7423 22.655 13.498 22.655C15.5543 22.655 16.592 21.629 17.0523 20.2452C17.4634 22.7022 18.9115 24.1317 21.7378 24.1332L21.7422 24.1339C23.8941 24.1339 25.1024 23.1797 25.6098 21.7248C26.2386 23.3466 27.6646 24.1339 29.84 24.1339C31.8463 24.1339 33.1517 23.4184 33.6591 21.9395C34.1666 23.4424 35.3756 24.1339 37.0921 24.1339C38.8086 24.1339 39.9934 23.4184 40.4766 21.9156C40.984 23.4184 42.2173 24.1339 44.1993 24.1339C47.1969 24.1339 49.034 22.2015 49.034 18.6952C49.0355 17.4072 48.6729 15.6417 48.1655 14.4255ZM16.642 17.955C16.1595 18.3367 15.2395 18.6241 13.8856 18.6241C12.6523 18.6241 11.4204 18.291 11.4204 17.479C11.4204 16.5952 12.7008 15.7135 16.6412 15.0691V17.955H16.642Z" fill="#004956"/>
<path d="M18.2731 9.1048C19.254 9.1048 20.0615 8.40245 20.0615 7.41568C20.0615 6.37232 19.2151 5.72656 18.2731 5.72656C17.2921 5.72656 16.4648 6.39046 16.4648 7.41568C16.4648 8.45977 17.3495 9.1048 18.2731 9.1048Z" fill="#004956"/>
<path d="M14.2301 9.1048C15.2111 9.1048 16.0185 8.40245 16.0185 7.41568C16.0185 6.37232 15.1721 5.72656 14.2301 5.72656C13.2491 5.72656 12.4219 6.39046 12.4219 7.41568C12.4219 8.45977 13.3065 9.1048 14.2301 9.1048Z" fill="#004956"/>
<path d="M0.195312 41.2129L0.671137 38.6622C1.60146 39.3153 3.25618 39.9067 4.641 39.9067C5.84049 39.9067 6.54356 39.5192 6.54356 38.8661C6.54356 37.0912 0.299008 38.7435 0.299008 34.439C0.299008 32.1945 2.18098 30.7258 5.22052 30.7258C6.85391 30.7258 8.36375 31.175 9.43895 31.7258L8.92194 34.2147C7.90852 33.6843 6.62666 33.1945 5.38599 33.1945C4.24901 33.1945 3.54594 33.6226 3.54594 34.2351C3.54594 36.092 9.79049 34.5006 9.79049 38.5193C9.79049 40.723 7.66068 42.273 4.51744 42.273C2.63547 42.2738 1.12563 41.723 0.195312 41.2129Z" fill="#004956"/>
<path d="M20.2516 31.0924H23.5184V41.9669H20.2516V40.1717C19.3625 41.4771 18.1012 42.2325 16.4678 42.2325C13.6967 42.2325 11.0293 40.2943 11.0293 36.5195C11.0293 32.7447 13.5724 30.7659 16.4678 30.7659C18.0806 30.7659 19.3419 31.3573 20.2516 32.5408V31.0924ZM20.2516 36.4789C19.6522 34.4587 18.4527 33.4391 17.0878 33.4391C15.6199 33.4391 14.4821 34.5204 14.4821 36.4789C14.4821 38.4171 15.6397 39.56 17.1084 39.56C18.5358 39.5592 19.714 38.3148 20.2516 36.4789Z" fill="#004956"/>
<path d="M25.916 41.9671V27.624H29.1828V41.9671H25.916Z" fill="#004956"/>
<path d="M31.584 41.9671V27.624H34.8508V41.9671H31.584Z" fill="#004956"/>
<path d="M45.9333 31.0924H49.2V41.9669H45.9333V40.1717C45.0441 41.4771 43.7828 42.2325 42.1495 42.2325C39.3783 42.2325 36.7109 40.2943 36.7109 36.5195C36.7109 32.7447 39.2541 30.7659 42.1495 30.7659C43.7623 30.7659 45.0235 31.3573 45.9333 32.5408V31.0924ZM45.9333 36.4789C45.3339 34.4587 44.1344 33.4391 42.7694 33.4391C41.3015 33.4391 40.1638 34.5204 40.1638 36.4789C40.1638 38.4171 41.3214 39.56 42.79 39.56C44.2168 39.5592 45.3957 38.3148 45.9333 36.4789Z" fill="#004956"/>
<path d="M115.909 34.1032L113.094 10.9406C112.336 4.70436 106.964 0 100.597 0H73.7016C67.335 0 61.9626 4.70436 61.2052 10.9406L58.3921 34.1032C57.9641 37.6262 59.0864 41.1695 61.4743 43.8232C63.8593 46.479 67.2916 48 70.8886 48H103.413C107.007 48 110.439 46.479 112.827 43.8232C115.212 41.1702 116.338 37.6269 115.909 34.1032ZM108.196 39.798C106.917 41.2188 105.154 42.0004 103.231 42.0004H71.071C69.1456 42.0004 67.3813 41.2188 66.1068 39.798C64.8286 38.3772 64.2535 36.5573 64.4815 34.6713L67.2629 11.7685C67.6622 8.48207 70.4951 5.99964 73.8524 5.99964H100.447C103.804 5.99964 106.637 8.48135 107.037 11.7685L109.821 34.6713C110.049 36.5573 109.47 38.3772 108.196 39.798Z" fill="#004956"/>
<path d="M103.309 26.9934C102.866 26.3236 102.186 25.8643 101.393 25.6996C100.599 25.5349 99.7897 25.6851 99.1109 26.1212C91.013 31.332 83.1321 31.3313 75.0189 26.1204C74.3401 25.6843 73.5289 25.5341 72.7368 25.7003C71.944 25.8657 71.2645 26.3258 70.8225 26.9956C70.3805 27.6653 70.229 28.465 70.3967 29.2473C70.5644 30.0295 71.0306 30.7 71.7094 31.1361C76.7795 34.3928 81.9481 36.0436 87.0718 36.0436C92.1963 36.0436 97.3613 34.3921 102.424 31.1347C103.103 30.6978 103.568 30.0266 103.735 29.2444C103.903 28.4628 103.751 27.6632 103.309 26.9934Z" fill="#004956"/>
</svg>
